<svg width="16" height="16" viewBox="0 0 16 16" fill="none" xmlns="http://www.w3.org/2000/svg">
<path fill-rule="evenodd" clip-rule="evenodd" d="M5.66669 6.00008C5.66669 4.71142 6.71136 3.66675 8.00002 3.66675C9.28868 3.66675 10.3334 4.71142 10.3334 6.00008C10.3334 7.28874 9.28868 8.33341 8.00002 8.33341C6.71136 8.33341 5.66669 7.28874 5.66669 6.00008ZM8.00002 5.00008C7.44774 5.00008 7.00002 5.4478 7.00002 6.00008C7.00002 6.55236 7.44774 7.00008 8.00002 7.00008C8.5523 7.00008 9.00002 6.55236 9.00002 6.00008C9.00002 5.4478 8.5523 5.00008 8.00002 5.00008Z" fill="#828282"/>
<path fill-rule="evenodd" clip-rule="evenodd" d="M0.666687 8.00008C0.666687 3.94999 3.94993 0.666748 8.00002 0.666748C12.0501 0.666748 15.3334 3.94999 15.3334 8.00008C15.3334 10.0404 14.5001 11.8861 13.1553 13.2155C13.1355 13.2376 13.1142 13.2584 13.0916 13.2777C11.7726 14.5505 9.97774 15.3334 8.00002 15.3334C6.04341 15.3334 4.26577 14.5671 2.95083 13.3183C2.89729 13.2797 2.84985 13.2333 2.81003 13.181C1.48563 11.8543 0.666687 10.0228 0.666687 8.00008ZM4.04455 12.5118C5.10059 13.4383 6.48471 14.0001 8.00002 14.0001C9.51534 14.0001 10.8995 13.4383 11.9555 12.5117C11.7263 11.2725 10.6393 10.3334 9.33334 10.3334H6.66668C5.36077 10.3334 4.27374 11.2725 4.04455 12.5118ZM12.9783 11.3503C12.3499 9.96411 10.9544 9.00008 9.33334 9.00008H6.66668C5.04565 9.00008 3.65012 9.96411 3.02176 11.3503C2.37663 10.3936 2.00002 9.24082 2.00002 8.00008C2.00002 4.68637 4.68631 2.00008 8.00002 2.00008C11.3137 2.00008 14 4.68637 14 8.00008C14 9.24082 13.6234 10.3936 12.9783 11.3503Z" fill="#828282"/>
</svg>
