<svg width="16" height="16" viewBox="0 0 16 16" fill="none" xmlns="http://www.w3.org/2000/svg">
<path d="M8 0.666748C11.1296 0.666748 13.6667 3.20379 13.6667 6.33341C13.6667 8.32379 12.7481 10.3365 11.2125 12.3005C10.6675 12.9975 10.0748 13.6474 9.46757 14.2394C9.41754 14.2881 9.36835 14.3356 9.32005 14.3818L9.04141 14.6432L8.78707 14.8724L8.55989 15.0686L8.42115 15.1835C8.17769 15.3819 7.82878 15.3835 7.58353 15.1873L7.43847 15.0672L7.21233 14.8719L6.95845 14.6431L6.67994 14.3818L6.53242 14.2394C5.9252 13.6474 5.33247 12.9975 4.78747 12.3005C3.25186 10.3365 2.33333 8.32379 2.33333 6.33341C2.33333 3.20379 4.87037 0.666748 8 0.666748ZM8 2.00008C5.60675 2.00008 3.66666 3.94017 3.66666 6.33341C3.66666 7.97085 4.46852 9.7279 5.83784 11.4792C6.3434 12.1258 6.89642 12.7322 7.46315 13.2846L7.73163 13.5415C7.82009 13.6245 7.90867 13.7076 8 13.7874L8.26832 13.5415L8.53684 13.2846C9.10357 12.7322 9.65659 12.1258 10.1622 11.4792C11.5315 9.7279 12.3333 7.97085 12.3333 6.33341C12.3333 3.94017 10.3932 2.00008 8 2.00008ZM8 3.66675C9.47275 3.66675 10.6667 4.86066 10.6667 6.33341C10.6667 7.80617 9.47275 9.00008 8 9.00008C6.52724 9.00008 5.33333 7.80617 5.33333 6.33341C5.33333 4.86066 6.52724 3.66675 8 3.66675ZM8 5.00008C7.26362 5.00008 6.66666 5.59704 6.66666 6.33341C6.66666 7.06979 7.26362 7.66675 8 7.66675C8.73637 7.66675 9.33333 7.06979 9.33333 6.33341C9.33333 5.59704 8.73637 5.00008 8 5.00008Z" fill="#4F4F4F"/>
</svg>
