<svg width="112" height="20" viewBox="0 0 112 20" fill="none" xmlns="http://www.w3.org/2000/svg">
<path d="M69.0711 2.92893C72.9763 6.83418 72.9763 13.1658 69.0711 17.0711C65.1658 20.9763 58.8342 20.9763 54.9289 17.0711C51.0237 13.1658 51.0237 6.83418 54.9289 2.92893C58.8342 -0.976311 65.1658 -0.976311 69.0711 2.92893Z" fill="#FF8921"/>
<path d="M91.0711 2.92893C94.9763 6.83418 94.9763 13.1658 91.0711 17.0711C87.1658 20.9763 80.8342 20.9763 76.9289 17.0711C73.0237 13.1658 73.0237 6.83418 76.9289 2.92893C80.8342 -0.976311 87.1658 -0.976311 91.0711 2.92893Z" fill="#FFCF1A"/>
<path d="M103.273 0H96V20H112V12.5H103.273V0Z" fill="#2F80ED"/>
<path d="M51.0711 17.0711C49.6725 18.4696 47.8907 19.422 45.9509 19.8079C44.0111 20.1937 42.0004 19.9957 40.1732 19.2388C38.3459 18.4819 36.7841 17.2002 35.6853 15.5557C34.5865 13.9112 34 11.9778 34 10C34 8.02219 34.5865 6.08879 35.6853 4.4443C36.7841 2.79981 38.3459 1.51808 40.1732 0.761205C42.0004 0.00432858 44.0111 -0.193705 45.9509 0.192147C47.8907 0.577999 49.6725 1.53041 51.0711 2.92893L44 10L51.0711 17.0711Z" fill="#FF2C2C"/>
<path d="M0 5C0 2.23858 2.23858 0 5 0H20V10H5C2.23858 10 0 7.76142 0 5Z" fill="#27AE60"/>
<path d="M0 10H15C17.7614 10 20 12.2386 20 15C20 17.7614 17.7614 20 15 20H0V10Z" fill="#27AE60"/>
<rect x="23" y="7" width="8" height="6" fill="#4F4F4F"/>
</svg>
