<svg width="16" height="16" viewBox="0 0 16 16" fill="none" xmlns="http://www.w3.org/2000/svg">
<path fill-rule="evenodd" clip-rule="evenodd" d="M0.666687 7.00008C0.666687 3.50229 3.50223 0.666748 7.00002 0.666748C10.4978 0.666748 13.3334 3.50229 13.3334 7.00008C13.3334 8.50884 12.8058 9.89438 11.925 10.9823L14.3738 13.431C14.6341 13.6914 14.6341 14.1135 14.3738 14.3739C14.1134 14.6342 13.6913 14.6342 13.431 14.3739L10.9822 11.9251C9.89432 12.8058 8.50878 13.3334 7.00002 13.3334C3.50223 13.3334 0.666687 10.4979 0.666687 7.00008ZM7.00002 2.00008C4.23861 2.00008 2.00002 4.23867 2.00002 7.00008C2.00002 9.76149 4.23861 12.0001 7.00002 12.0001C9.76143 12.0001 12 9.76149 12 7.00008C12 4.23867 9.76143 2.00008 7.00002 2.00008Z" fill="#4F4F4F"/>
</svg>
